<svg width="20" height="20" viewBox="0 0 20 20" fill="none" xmlns="http://www.w3.org/2000/svg">
<g id="Iconly/Broken/Heart">
<g id="Heart">
<path id="Heart_2" fill-rule="evenodd" clip-rule="evenodd" d="M14.6541 2.38795C15.9251 2.78321 16.982 3.69113 17.5791 4.90064C18.2772 6.36659 18.3722 8.05575 17.8431 9.59336C17.356 11.0089 16.5575 12.292 15.5086 13.3447C14.8209 14.0515 14.0799 14.7023 13.2923 15.2912L13.2506 15.3265C12.989 15.5027 12.6371 15.4335 12.4586 15.1708C12.3678 15.044 12.3314 14.8851 12.3576 14.7304C12.3837 14.5757 12.4703 14.4384 12.5976 14.3498C13.3366 13.793 14.0333 13.1801 14.6819 12.5166C15.6159 11.5974 16.3292 10.4711 16.7662 9.2253C17.1865 7.9839 17.1014 6.62272 16.53 5.44565C16.0701 4.51968 15.2598 3.82452 14.2858 3.52043C13.0436 3.1247 11.6902 3.3646 10.6522 4.16453C10.4458 4.32026 10.1638 4.32026 9.95742 4.16453C8.91987 3.36348 7.56594 3.12349 6.32377 3.52043C5.34331 3.8178 4.52494 4.51086 4.05882 5.43857C3.50024 6.61477 3.42033 7.96814 3.8365 9.20407C4.27536 10.4469 4.98845 11.5705 5.92081 12.4883C7.29846 13.834 8.81762 15.0209 10.4507 16.0273C10.6584 16.174 10.7498 16.4404 10.677 16.687C10.6042 16.9336 10.3838 17.1045 10.1311 17.1102C10.0172 17.1109 9.90575 17.0763 9.81152 17.0111C8.11032 15.9629 6.5282 14.7262 5.09403 13.3235C4.03935 12.2743 3.23789 10.9902 2.75266 9.57213C2.24178 8.03664 2.34665 6.35776 3.04446 4.90064C3.64153 3.69113 4.69842 2.78321 5.96944 2.38795C7.43079 1.92811 9.0163 2.14003 10.3118 2.96834C11.6072 2.14003 13.1927 1.92811 14.6541 2.38795ZM14.0843 7.80971C14.0553 7.1556 13.6277 6.58987 13.0144 6.39411C12.7864 6.24907 12.6851 5.9641 12.7691 5.70395C12.8531 5.4438 13.1007 5.27578 13.3687 5.29702C14.4047 5.63018 15.1421 6.56571 15.2377 7.66815C15.2572 7.82229 15.2153 7.978 15.1213 8.1004C15.0273 8.2228 14.889 8.30166 14.7374 8.31933C14.4192 8.36121 14.1275 8.13359 14.0843 7.80971Z" fill="white"/>
</g>
</g>
</svg>
