<svg width="32" height="32" viewBox="0 0 32 32" fill="none" xmlns="http://www.w3.org/2000/svg">
<path d="M29.0074 27.4754L24.4242 22.9944L24.3168 22.8311C24.1171 22.6322 23.844 22.5202 23.5589 22.5202C23.2738 22.5202 23.0007 22.6322 22.801 22.8311C18.906 26.4044 12.9042 26.5987 8.776 23.2849C4.64781 19.9712 3.67422 14.1778 6.50091 9.74688C9.3276 5.31595 15.0774 3.62245 19.9371 5.78951C24.7968 7.95656 27.2584 13.3117 25.6894 18.3034C25.5764 18.6641 25.6687 19.0562 25.9316 19.3322C26.1946 19.6082 26.5881 19.7261 26.9641 19.6414C27.34 19.5568 27.6412 19.2825 27.7542 18.9219C29.6299 12.9982 26.797 6.6234 21.0882 3.9214C15.3793 1.21941 8.50778 3.00109 4.91874 8.11388C1.32969 13.2267 2.10024 20.1362 6.73191 24.3727C11.3636 28.6091 18.4664 28.9012 23.4455 25.0599L27.5035 29.0273C27.9226 29.4353 28.6002 29.4353 29.0193 29.0273C29.438 28.6136 29.438 27.9475 29.0193 27.5337L29.0074 27.4754Z" fill="#F9F9F9"/>
</svg>
